<svg xmlns="http://www.w3.org/2000/svg" width="282" height="68" viewBox="0 0 282 68"><path d="M38.092 39.687c0 4.516-.466 8.148-3.897 11.393-3.067 2.902-6.813 3.893-10.568 4.246-3.272.285-7.548-.234-10.303-2.182-3.804-2.748-4.54-6.852-4.54-12.043V12.36l11.144.926V39.33c0 1.394-.056 3.28.67 4.532.842 1.283 2.51 1.77 3.91 1.71 1.253-.06 2.806-.554 3.754-1.546 1.403-1.38 1.257-3.48 1.257-5.365V14.094l8.583.723-.01 24.87zM51.77 52.153l-10.305.862v-26.01l10.304.326M51.77 24.517l-10.305-.448v-8.977l10.304.86M72.332 50.618l-10.408.863V25.145l-7.502-.315v-8.645l25.256 2.123v7.62l-7.346-.325" fill="#2F3B4D"/><path fill="#2F3B4D" d="M0 .825h108.7v65.932H0l86.975-10.994V11.82"/><path d="M222.326 47.78c3.54 14.336 15.744 20.105 29.494 20.105 13.566 0 29.22-6.34 29.22-22.19 0-7.2-3.312-13.378-9.72-16.84-5.734-2.983-12.33-4.03-18.527-5.274-2.498-.573-7.262-1.237-7.262-4.722 0-3.453 3.823-4.227 6.48-4.227 5.066 0 8.703 1.73 10.615 6.622l16.643-5.094c-4.02-11.445-15-16.16-26.348-16.16-6.492 0-13.488 1.244-18.82 4.988-5.225 3.748-8.393 10.11-8.393 16.55 0 15.675 14.61 19.032 26.918 21.433 2.96.58 8.043 1.353 8.043 5.384 0 3.682-5.184 4.03-7.727 4.03-5.837 0-10.218-2.11-11.944-7.97l-18.67 3.366zM200.53.956h-21.173l-20.336 65.95h16.33l4.007-12.98h17.492l3.718 12.98h20.535L200.53.957zM182.69 39.52l5.35-19.136 5.36 19.137h-10.71zM154.64 4.405c-5.642-3.252-12.804-3.45-19.183-3.45H108.7v65.952h20.36V42.97h10.19c6.31 0 12.778-.955 17.856-5.105 4.86-3.96 7.252-9.916 7.252-16.16.013-7.085-3.612-13.628-9.72-17.3zm-20.343 24.44h-5.227V16.062h5.8c4.583 0 9.548.486 9.548 6.352-.01 6.144-5.54 6.43-10.12 6.43z" opacity=".5" fill="#2F3B4D"/></svg>